# xmcd
#
# Track frame offsets:
#	150
#	12000
#	25200
#	37650
#	53325
#	68250
#	78450
#	94800
#	108450
#	122175
#	135225
#	152175
#	166575
#	182100
#	194850
#	210300
#	224625
#	237450
#	250950
#	264825
#
# Disc length: 3718 seconds
#
# Revision: 0
# Processed by: cddbd v1.5.2PL0 Copyright (c) Steve Scherf et al.
# Submitted via: EasyCDDAExtractor 16.0.6.1
#
DISCID=040e8414
DTITLE=Μενιδιάτης Μιχάλης - Τραγούδια 45 στροφές-Μενιδιάτης Μιχάλης 1
DYEAR=1996
DGENRE=Λαϊκή
TTITLE0=Μενιδιάτης Μιχάλης-Λύδια Γιώτα - Τα ψεύτικα φιλιά [1966, Γ. Λαύκα-Σ. Τ
TTITLE0=σιλιβερδή]
TTITLE1=Μενιδιάτης Μιχάλης-Δημητρίου Φούλη - Η τελευταία μας νύχτα [1967, Δ. Τ
TTITLE1=ζάρα-Κ. Ψυχογιού]
TTITLE2=Μενιδιάτης Μιχάλης - Η αγάπη δεν βαστάει [1967, Κώστα Καρουσάκη]
TTITLE3=Μενιδιάτης Μιχάλης-Κρόκου Σοφία - Τι σού είπανε για μένα [1962, Απ. Κα
TTITLE3=λδάρα]
TTITLE4=Μενιδιάτης Μιχάλης-Δημητρίου Φούλη - Σε είχα τόσο συνηθίσει [1963, Στέ
TTITLE4=λ. Μακρυδάκη]
TTITLE5=Μενιδιάτης Μιχάλης - Πέτα την μάσκα [1965, Γ. Λαύκα-Σπ. Χαλκιόπουλου]
TTITLE6=Μενιδιάτης Μιχάλης - Κάτσε, πού θα πας [1966, Μαν. Χιώτη]
TTITLE7=Μενιδιάτης Μιχάλης - Με τι κουράγιο [1963, Γ. Λαύκα]
TTITLE8=Μενιδιάτης Μιχάλης - Αμαρτίες [1970, Αντ. Ρεπάνη-Ν. Γκούμα]
TTITLE9=Μενιδιάτης Μιχάλης - Αναστενάζω και πονώ [1967, Γιάννη Καραμπεσίνη]
TTITLE10=Μενιδιάτης Μιχάλης-Γεωργούτη Βούλα - Κρίμα, κρίμα [1970, Απ. Καλδάρα]
TTITLE11=Μενιδιάτης Μιχάλης-Λαμπράκη Χαρούλα - Τα ίδια δικαιώματα [1970, Γ. Κα
TTITLE11=ραμπεσίνη]
TTITLE12=Μενιδιάτης Μιχάλης-Δημητρίου Φούλη - Αχ γιατί να σ' αγαπήσω [1970, Γ.
TTITLE12=Καραμπεσίνη]
TTITLE13=Μενιδιάτης Μιχάλης - Μ' εγκατέλειψες [1965, Αντ. Κατινάρη]
TTITLE14=Μενιδιάτης Μιχάλης-Δημητρίου Φούλη - Για μένα δεν υπάρχει λίγη αγάπη 
TTITLE14=[1967, Τ. Σούκα-Ηρ. Παπασιδέρη]
TTITLE15=Μενιδιάτης Μιχάλης-Λύδια Γιώτα - Κάντε μου παρέα [1967, Ν. Δαλέζιου]
TTITLE16=Μενιδιάτης Μιχάλης-Δημητρίου Φούλη-Καλδάρας Απ. - Έπεσες σε χρυσό παι
TTITLE16=δί [1966, Απ. Καλδάρα]
TTITLE17=Μενιδιάτης Μιχάλης - Ρα καμπάνα Παπαντής [1965, Μιχ. Καλογράνη]
TTITLE18=Μενιδιάτης Μιχάλης-Χρυσάφη Άννα - Πες μου, εγώ τι φταίω [1966, Ν. Δαλ
TTITLE18=έζιου]
TTITLE19=Μενιδιάτης Μιχάλης-Κούρτη Ρία - Εμείς θα ξανασμίξουμε [1964, Απ. Καλδ
TTITLE19=άρα]
EXTD=
EXTT0=
EXTT1=
EXTT2=
EXTT3=
EXTT4=
EXTT5=
EXTT6=
EXTT7=
EXTT8=
EXTT9=
EXTT10=
EXTT11=
EXTT12=
EXTT13=
EXTT14=
EXTT15=
EXTT16=
EXTT17=
EXTT18=
EXTT19=
PLAYORDER=
